# xmcd
#
# Track frame offsets: 
#        150
#        16597
#        31550
#        49487
#        64200
#        80687
#        95847
#        113752
#        132327
#        145475
#        163927
#
# Disc length: 2571 seconds
#
# Revision: 4
# Processed by: cddbd v1.5.2PL0 Copyright (c) Steve Scherf et al.
# Submitted via: ExactAudioCopyFreeDBPlugin 1.0
#
DISCID=970a090b
DTITLE=Blues Etílicos - IV
DYEAR=1991
DGENRE=Blues
TTITLE0=How Many More Times
TTITLE1=Louco Da Cidade
TTITLE2=Hard Times
TTITLE3=3º  Whisky
TTITLE4=Pelicano
TTITLE5=Shame, Shame, Shame
TTITLE6=Na Beira Da Madrugada
TTITLE7=Break And Butter
TTITLE8=Miss Coke
TTITLE9=Fuss And Fight
TTITLE10=Country Girl
EXTD=YEAR: 1991
EXTT0=
EXTT1=
EXTT2=
EXTT3=
EXTT4=
EXTT5=
EXTT6=
EXTT7=
EXTT8=
EXTT9=
EXTT10=
PLAYORDER=
